<?xml version="1.0" encoding="UTF-8" standalone="no"?>
<!DOCTYPE svg PUBLIC "-//W3C//DTD SVG 1.1//EN"
 "http://www.w3.org/Graphics/SVG/1.1/DTD/svg11.dtd">
<!-- Generated by graphviz version 14.1.1 (20251213.1925)
 -->
<!-- Title: tm1622_output_test Pages: 1 -->
<svg width="285pt" height="1336pt"
 viewBox="0.00 0.00 285.00 1336.00" xmlns="http://www.w3.org/2000/svg" xmlns:xlink="http://www.w3.org/1999/xlink">
<g id="graph0" class="graph" transform="scale(1 1) rotate(0) translate(4 1332)">
<title>tm1622_output_test</title>
<!-- Node1 -->
<g id="Node000001" class="node">
<title>Node1</title>
<g id="a_Node000001"><a xlink:title="output test">
<polygon fill="#999999" stroke="#666666" points="102.25,-662 0,-662 0,-642 102.25,-642 102.25,-662"/>
<text xml:space="preserve" text-anchor="middle" x="51.12" y="-648.5" font-family="Helvetica,sans-Serif" font-size="10.00">tm1622_output_test</text>
</a>
</g>
</g>
<!-- Node2 -->
<g id="Node000002" class="node">
<title>Node2</title>
<g id="a_Node000002"><a xlink:href="group__tm1622__basic__driver.html#ga3d625e1e3d597553b605f2b454aed727" target="_top" xlink:title="clear segment">
<polygon fill="white" stroke="#666666" points="266,-1328 148.75,-1328 148.75,-1308 266,-1308 266,-1328"/>
<text xml:space="preserve" text-anchor="middle" x="207.38" y="-1314.5" font-family="Helvetica,sans-Serif" font-size="10.00">tm1622_clear_segment</text>
</a>
</g>
</g>
<!-- Node1&#45;&gt;Node2 -->
<g id="edge1_Node000001_Node000002" class="edge">
<title>Node1&#45;&gt;Node2</title>
<g id="a_edge1_Node000001_Node000002"><a xlink:title=" ">
<path fill="none" stroke="#63b8ff" d="M52.01,-662.32C51.34,-737.31 50.9,-1198.51 138.25,-1299 138.72,-1299.54 139.2,-1300.06 139.69,-1300.56"/>
<polygon fill="#63b8ff" stroke="#63b8ff" points="137.43,-1303.25 147.46,-1306.67 141.76,-1297.74 137.43,-1303.25"/>
</a>
</g>
</g>
<!-- Node3 -->
<g id="Node000003" class="node">
<title>Node3</title>
<g id="a_Node000003"><a xlink:href="group__tm1622__basic__driver.html#ga154d0b88865f668214bc559d0f890ae3" target="_top" xlink:title="clear timer">
<polygon fill="white" stroke="#666666" points="258.12,-1290 156.62,-1290 156.62,-1270 258.12,-1270 258.12,-1290"/>
<text xml:space="preserve" text-anchor="middle" x="207.38" y="-1276.5" font-family="Helvetica,sans-Serif" font-size="10.00">tm1622_clear_timer</text>
</a>
</g>
</g>
<!-- Node1&#45;&gt;Node3 -->
<g id="edge2_Node000001_Node000003" class="edge">
<title>Node1&#45;&gt;Node3</title>
<g id="a_edge2_Node000001_Node000003"><a xlink:title=" ">
<path fill="none" stroke="#63b8ff" d="M52.1,-662.17C52.12,-734.18 55.73,-1166.84 138.25,-1261 140.6,-1263.68 143.3,-1266 146.23,-1268.01"/>
<polygon fill="#63b8ff" stroke="#63b8ff" points="144.46,-1271.03 154.93,-1272.67 147.77,-1264.86 144.46,-1271.03"/>
</a>
</g>
</g>
<!-- Node4 -->
<g id="Node000004" class="node">
<title>Node4</title>
<g id="a_Node000004"><a xlink:href="group__tm1622__basic__driver.html#ga4f7d84042cc2a0d354557b3f6da0e2c0" target="_top" xlink:title="clear watchdog">
<polygon fill="white" stroke="#666666" points="268.25,-1252 146.5,-1252 146.5,-1232 268.25,-1232 268.25,-1252"/>
<text xml:space="preserve" text-anchor="middle" x="207.38" y="-1238.5" font-family="Helvetica,sans-Serif" font-size="10.00">tm1622_clear_watchdog</text>
</a>
</g>
</g>
<!-- Node1&#45;&gt;Node4 -->
<g id="edge3_Node000001_Node000004" class="edge">
<title>Node1&#45;&gt;Node4</title>
<g id="a_edge3_Node000001_Node000004"><a xlink:title=" ">
<path fill="none" stroke="#63b8ff" d="M52.21,-662.43C52.97,-732.55 60.7,-1135.33 138.25,-1223 138.72,-1223.53 139.2,-1224.05 139.7,-1224.55"/>
<polygon fill="#63b8ff" stroke="#63b8ff" points="137.47,-1227.25 147.52,-1230.62 141.76,-1221.72 137.47,-1227.25"/>
</a>
</g>
</g>
<!-- Node5 -->
<g id="Node000005" class="node">
<title>Node5</title>
<g id="a_Node000005"><a xlink:href="group__tm1622__basic__driver.html#gab3d0c72acf61f24b614ca7598a275415" target="_top" xlink:title="close the chip">
<polygon fill="white" stroke="#666666" points="245.75,-1214 169,-1214 169,-1194 245.75,-1194 245.75,-1214"/>
<text xml:space="preserve" text-anchor="middle" x="207.38" y="-1200.5" font-family="Helvetica,sans-Serif" font-size="10.00">tm1622_deinit</text>
</a>
</g>
</g>
<!-- Node1&#45;&gt;Node5 -->
<g id="edge4_Node000001_Node000005" class="edge">
<title>Node1&#45;&gt;Node5</title>
<g id="a_edge4_Node000001_Node000005"><a xlink:title=" ">
<path fill="none" stroke="#63b8ff" d="M52.32,-662.16C53.83,-728.84 65.47,-1103.59 138.25,-1185 143.47,-1190.84 150.33,-1194.95 157.67,-1197.83"/>
<polygon fill="#63b8ff" stroke="#63b8ff" points="156.62,-1201.17 167.21,-1200.78 158.69,-1194.48 156.62,-1201.17"/>
</a>
</g>
</g>
<!-- Node6 -->
<g id="Node000006" class="node">
<title>Node6</title>
<g id="a_Node000006"><a xlink:href="group__tm1622__basic__driver.html#gae82502644ebcc885abf671ae56b0d9de" target="_top" xlink:title="get chip&#39;s information">
<polygon fill="white" stroke="#666666" points="242,-1176 172.75,-1176 172.75,-1156 242,-1156 242,-1176"/>
<text xml:space="preserve" text-anchor="middle" x="207.38" y="-1162.5" font-family="Helvetica,sans-Serif" font-size="10.00">tm1622_info</text>
</a>
</g>
</g>
<!-- Node1&#45;&gt;Node6 -->
<g id="edge5_Node000001_Node000006" class="edge">
<title>Node1&#45;&gt;Node6</title>
<g id="a_edge5_Node000001_Node000006"><a xlink:title=" ">
<path fill="none" stroke="#63b8ff" d="M52.46,-662.26C54.79,-726.39 70.36,-1071.97 138.25,-1147 144.33,-1153.72 152.57,-1158.15 161.22,-1161.04"/>
<polygon fill="#63b8ff" stroke="#63b8ff" points="160.23,-1164.4 170.8,-1163.56 162.02,-1157.63 160.23,-1164.4"/>
</a>
</g>
</g>
<!-- Node7 -->
<g id="Node000007" class="node">
<title>Node7</title>
<g id="a_Node000007"><a xlink:href="group__tm1622__basic__driver.html#gab8db0b793e0a985e203f94ca174cb21b" target="_top" xlink:title="initialize the chip">
<polygon fill="white" stroke="#666666" points="240.5,-1138 174.25,-1138 174.25,-1118 240.5,-1118 240.5,-1138"/>
<text xml:space="preserve" text-anchor="middle" x="207.38" y="-1124.5" font-family="Helvetica,sans-Serif" font-size="10.00">tm1622_init</text>
</a>
</g>
</g>
<!-- Node1&#45;&gt;Node7 -->
<g id="edge6_Node000001_Node000007" class="edge">
<title>Node1&#45;&gt;Node7</title>
<g id="a_edge6_Node000001_Node000007"><a xlink:title=" ">
<path fill="none" stroke="#63b8ff" d="M52.62,-662.26C55.81,-723.48 75.2,-1040.3 138.25,-1109 144.81,-1116.15 153.82,-1120.7 163.14,-1123.57"/>
<polygon fill="#63b8ff" stroke="#63b8ff" points="162.07,-1126.91 172.62,-1125.86 163.72,-1120.11 162.07,-1126.91"/>
</a>
</g>
</g>
<!-- Node8 -->
<g id="Node000008" class="node">
<title>Node8</title>
<g id="a_Node000008"><a xlink:href="group__tm1622__interface__driver.html#ga3f9a769847a6d8437f58238cfd61c9c9" target="_top" xlink:title="interface cs gpio deinit">
<polygon fill="white" stroke="#666666" points="260.75,-1100 154,-1100 154,-1068 260.75,-1068 260.75,-1100"/>
<text xml:space="preserve" text-anchor="start" x="162" y="-1086.5" font-family="Helvetica,sans-Serif" font-size="10.00">tm1622_interface_cs</text>
<text xml:space="preserve" text-anchor="middle" x="207.38" y="-1074.5" font-family="Helvetica,sans-Serif" font-size="10.00">_gpio_deinit</text>
</a>
</g>
</g>
<!-- Node1&#45;&gt;Node8 -->
<g id="edge7_Node000001_Node000008" class="edge">
<title>Node1&#45;&gt;Node8</title>
<g id="a_edge7_Node000001_Node000008"><a xlink:title=" ">
<path fill="none" stroke="#63b8ff" d="M52.96,-662.17C57.8,-718.93 83.99,-996.35 138.25,-1059 140.13,-1061.17 142.21,-1063.15 144.44,-1064.95"/>
<polygon fill="#63b8ff" stroke="#63b8ff" points="142.18,-1067.65 152.45,-1070.27 146.06,-1061.82 142.18,-1067.65"/>
</a>
</g>
</g>
<!-- Node9 -->
<g id="Node000009" class="node">
<title>Node9</title>
<g id="a_Node000009"><a xlink:href="group__tm1622__interface__driver.html#ga32256bf36b47570b8b9dbacab1ac3cff" target="_top" xlink:title="interface cs gpio init">
<polygon fill="white" stroke="#666666" points="260.75,-1050 154,-1050 154,-1018 260.75,-1018 260.75,-1050"/>
<text xml:space="preserve" text-anchor="start" x="162" y="-1036.5" font-family="Helvetica,sans-Serif" font-size="10.00">tm1622_interface_cs</text>
<text xml:space="preserve" text-anchor="middle" x="207.38" y="-1024.5" font-family="Helvetica,sans-Serif" font-size="10.00">_gpio_init</text>
</a>
</g>
</g>
<!-- Node1&#45;&gt;Node9 -->
<g id="edge8_Node000001_Node000009" class="edge">
<title>Node1&#45;&gt;Node9</title>
<g id="a_edge8_Node000001_Node000009"><a xlink:title=" ">
<path fill="none" stroke="#63b8ff" d="M53.3,-662.28C59.49,-715.01 90,-954.86 138.25,-1009 140.12,-1011.1 142.18,-1013.02 144.39,-1014.78"/>
<polygon fill="#63b8ff" stroke="#63b8ff" points="141.97,-1017.38 152.24,-1019.97 145.83,-1011.54 141.97,-1017.38"/>
</a>
</g>
</g>
<!-- Node10 -->
<g id="Node000010" class="node">
<title>Node10</title>
<g id="a_Node000010"><a xlink:href="group__tm1622__interface__driver.html#ga2dfbc84d4c93fa7d1131f2a52e7487f6" target="_top" xlink:title="interface cs gpio write">
<polygon fill="white" stroke="#666666" points="260.75,-1000 154,-1000 154,-968 260.75,-968 260.75,-1000"/>
<text xml:space="preserve" text-anchor="start" x="162" y="-986.5" font-family="Helvetica,sans-Serif" font-size="10.00">tm1622_interface_cs</text>
<text xml:space="preserve" text-anchor="middle" x="207.38" y="-974.5" font-family="Helvetica,sans-Serif" font-size="10.00">_gpio_write</text>
</a>
</g>
</g>
<!-- Node1&#45;&gt;Node10 -->
<g id="edge9_Node000001_Node000010" class="edge">
<title>Node1&#45;&gt;Node10</title>
<g id="a_edge9_Node000001_Node000010"><a xlink:title=" ">
<path fill="none" stroke="#63b8ff" d="M51.86,-662.32C51.34,-704.91 55,-868.98 138.25,-959 140.16,-961.06 142.25,-962.96 144.48,-964.7"/>
<polygon fill="#63b8ff" stroke="#63b8ff" points="142.11,-967.33 152.41,-969.83 145.92,-961.46 142.11,-967.33"/>
</a>
</g>
</g>
<!-- Node11 -->
<g id="Node000011" class="node">
<title>Node11</title>
<g id="a_Node000011"><a xlink:href="group__tm1622__interface__driver.html#gadbbeb1d1bdb3b5384eb3ce2667bc1e8d" target="_top" xlink:title="interface data gpio deinit">
<polygon fill="white" stroke="#666666" points="264.88,-950 149.88,-950 149.88,-918 264.88,-918 264.88,-950"/>
<text xml:space="preserve" text-anchor="start" x="157.88" y="-936.5" font-family="Helvetica,sans-Serif" font-size="10.00">tm1622_interface_data</text>
<text xml:space="preserve" text-anchor="middle" x="207.38" y="-924.5" font-family="Helvetica,sans-Serif" font-size="10.00">_gpio_deinit</text>
</a>
</g>
</g>
<!-- Node1&#45;&gt;Node11 -->
<g id="edge10_Node000001_Node000011" class="edge">
<title>Node1&#45;&gt;Node11</title>
<g id="a_edge10_Node000001_Node000011"><a xlink:title=" ">
<path fill="none" stroke="#63b8ff" d="M52.53,-662.44C54.57,-700.8 66.75,-835.44 138.25,-909 138.98,-909.75 139.73,-910.48 140.51,-911.19"/>
<polygon fill="#63b8ff" stroke="#63b8ff" points="138.25,-913.87 148.35,-917.05 142.44,-908.26 138.25,-913.87"/>
</a>
</g>
</g>
<!-- Node12 -->
<g id="Node000012" class="node">
<title>Node12</title>
<g id="a_Node000012"><a xlink:href="group__tm1622__interface__driver.html#ga6baad472a1bd4726f6689f969a6673cd" target="_top" xlink:title="interface data gpio init">
<polygon fill="white" stroke="#666666" points="264.88,-900 149.88,-900 149.88,-868 264.88,-868 264.88,-900"/>
<text xml:space="preserve" text-anchor="start" x="157.88" y="-886.5" font-family="Helvetica,sans-Serif" font-size="10.00">tm1622_interface_data</text>
<text xml:space="preserve" text-anchor="middle" x="207.38" y="-874.5" font-family="Helvetica,sans-Serif" font-size="10.00">_gpio_init</text>
</a>
</g>
</g>
<!-- Node1&#45;&gt;Node12 -->
<g id="edge11_Node000001_Node000012" class="edge">
<title>Node1&#45;&gt;Node12</title>
<g id="a_edge11_Node000001_Node000012"><a xlink:title=" ">
<path fill="none" stroke="#63b8ff" d="M53.46,-662.23C58.33,-695.44 78.11,-801.37 138.25,-859 139.01,-859.72 139.78,-860.43 140.58,-861.11"/>
<polygon fill="#63b8ff" stroke="#63b8ff" points="138.42,-863.87 148.59,-866.82 142.48,-858.16 138.42,-863.87"/>
</a>
</g>
</g>
<!-- Node13 -->
<g id="Node000013" class="node">
<title>Node13</title>
<g id="a_Node000013"><a xlink:href="group__tm1622__interface__driver.html#gae218a50fbaf38b10a7008782946a5cd4" target="_top" xlink:title="interface data gpio read">
<polygon fill="white" stroke="#666666" points="264.88,-850 149.88,-850 149.88,-818 264.88,-818 264.88,-850"/>
<text xml:space="preserve" text-anchor="start" x="157.88" y="-836.5" font-family="Helvetica,sans-Serif" font-size="10.00">tm1622_interface_data</text>
<text xml:space="preserve" text-anchor="middle" x="207.38" y="-824.5" font-family="Helvetica,sans-Serif" font-size="10.00">_gpio_read</text>
</a>
</g>
</g>
<!-- Node1&#45;&gt;Node13 -->
<g id="edge12_Node000001_Node000013" class="edge">
<title>Node1&#45;&gt;Node13</title>
<g id="a_edge12_Node000001_Node000013"><a xlink:title=" ">
<path fill="none" stroke="#63b8ff" d="M55.02,-662.44C63.26,-690.28 89.46,-767.03 138.25,-809 139.32,-809.92 140.44,-810.82 141.58,-811.68"/>
<polygon fill="#63b8ff" stroke="#63b8ff" points="139.3,-814.37 149.61,-816.84 143.09,-808.49 139.3,-814.37"/>
</a>
</g>
</g>
<!-- Node14 -->
<g id="Node000014" class="node">
<title>Node14</title>
<g id="a_Node000014"><a xlink:href="group__tm1622__interface__driver.html#gaec726516ba03df0905f4f4ee08384249" target="_top" xlink:title="interface data gpio write">
<polygon fill="white" stroke="#666666" points="264.88,-800 149.88,-800 149.88,-768 264.88,-768 264.88,-800"/>
<text xml:space="preserve" text-anchor="start" x="157.88" y="-786.5" font-family="Helvetica,sans-Serif" font-size="10.00">tm1622_interface_data</text>
<text xml:space="preserve" text-anchor="middle" x="207.38" y="-774.5" font-family="Helvetica,sans-Serif" font-size="10.00">_gpio_write</text>
</a>
</g>
</g>
<!-- Node1&#45;&gt;Node14 -->
<g id="edge13_Node000001_Node000014" class="edge">
<title>Node1&#45;&gt;Node14</title>
<g id="a_edge13_Node000001_Node000014"><a xlink:title=" ">
<path fill="none" stroke="#63b8ff" d="M57.84,-662.39C69.96,-683.51 100.28,-731.75 138.25,-759 139.8,-760.11 141.4,-761.18 143.05,-762.2"/>
<polygon fill="#63b8ff" stroke="#63b8ff" points="141.09,-765.12 151.54,-766.88 144.47,-758.99 141.09,-765.12"/>
</a>
</g>
</g>
<!-- Node15 -->
<g id="Node000015" class="node">
<title>Node15</title>
<g id="a_Node000015"><a xlink:href="group__tm1622__interface__driver.html#ga4e057c3b91f808f8a10b6f9488dcb44c" target="_top" xlink:title="interface print format data">
<polygon fill="white" stroke="#666666" points="268.62,-750 146.12,-750 146.12,-718 268.62,-718 268.62,-750"/>
<text xml:space="preserve" text-anchor="start" x="154.12" y="-736.5" font-family="Helvetica,sans-Serif" font-size="10.00">tm1622_interface_debug</text>
<text xml:space="preserve" text-anchor="middle" x="207.38" y="-724.5" font-family="Helvetica,sans-Serif" font-size="10.00">_print</text>
</a>
</g>
</g>
<!-- Node1&#45;&gt;Node15 -->
<g id="edge14_Node000001_Node000015" class="edge">
<title>Node1&#45;&gt;Node15</title>
<g id="a_edge14_Node000001_Node000015"><a xlink:title=" ">
<path fill="none" stroke="#63b8ff" d="M65.54,-662.32C81.99,-674.62 111.05,-695.24 138.25,-709 141.1,-710.44 144.04,-711.84 147.05,-713.19"/>
<polygon fill="#63b8ff" stroke="#63b8ff" points="145.44,-716.31 156.01,-717.01 148.18,-709.87 145.44,-716.31"/>
</a>
</g>
</g>
<!-- Node16 -->
<g id="Node000016" class="node">
<title>Node16</title>
<g id="a_Node000016"><a xlink:href="group__tm1622__interface__driver.html#gabfae9aa8a4e8d230f2a9ecbb20368da6" target="_top" xlink:title="interface delay ms">
<polygon fill="white" stroke="#666666" points="276.5,-700 138.25,-700 138.25,-680 276.5,-680 276.5,-700"/>
<text xml:space="preserve" text-anchor="middle" x="207.38" y="-686.5" font-family="Helvetica,sans-Serif" font-size="10.00">tm1622_interface_delay_ms</text>
</a>
</g>
</g>
<!-- Node1&#45;&gt;Node16 -->
<g id="edge15_Node000001_Node000016" class="edge">
<title>Node1&#45;&gt;Node16</title>
<g id="a_edge15_Node000001_Node000016"><a xlink:title=" ">
<path fill="none" stroke="#63b8ff" d="M94.68,-662.48C112.72,-666.93 133.94,-672.16 153.02,-676.85"/>
<polygon fill="#63b8ff" stroke="#63b8ff" points="151.94,-680.19 162.49,-679.19 153.61,-673.4 151.94,-680.19"/>
</a>
</g>
</g>
<!-- Node17 -->
<g id="Node000017" class="node">
<title>Node17</title>
<g id="a_Node000017"><a xlink:href="group__tm1622__interface__driver.html#gaaa6f46e750e655fbd42583b49f7118a5" target="_top" xlink:title="interface delay us">
<polygon fill="white" stroke="#666666" points="275,-662 139.75,-662 139.75,-642 275,-642 275,-662"/>
<text xml:space="preserve" text-anchor="middle" x="207.38" y="-648.5" font-family="Helvetica,sans-Serif" font-size="10.00">tm1622_interface_delay_us</text>
</a>
</g>
</g>
<!-- Node1&#45;&gt;Node17 -->
<g id="edge16_Node000001_Node000017" class="edge">
<title>Node1&#45;&gt;Node17</title>
<g id="a_edge16_Node000001_Node000017"><a xlink:title=" ">
<path fill="none" stroke="#63b8ff" d="M102.63,-652C110.82,-652 119.46,-652 128.12,-652"/>
<polygon fill="#63b8ff" stroke="#63b8ff" points="127.97,-655.5 137.97,-652 127.97,-648.5 127.97,-655.5"/>
</a>
</g>
</g>
<!-- Node18 -->
<g id="Node000018" class="node">
<title>Node18</title>
<g id="a_Node000018"><a xlink:href="group__tm1622__interface__driver.html#gae356d6e818614d72898cf275a4e80e74" target="_top" xlink:title="interface rd gpio deinit">
<polygon fill="white" stroke="#666666" points="259.62,-624 155.12,-624 155.12,-592 259.62,-592 259.62,-624"/>
<text xml:space="preserve" text-anchor="start" x="163.12" y="-610.5" font-family="Helvetica,sans-Serif" font-size="10.00">tm1622_interface_rd</text>
<text xml:space="preserve" text-anchor="middle" x="207.38" y="-598.5" font-family="Helvetica,sans-Serif" font-size="10.00">_gpio_deinit</text>
</a>
</g>
</g>
<!-- Node1&#45;&gt;Node18 -->
<g id="edge17_Node000001_Node000018" class="edge">
<title>Node1&#45;&gt;Node18</title>
<g id="a_edge17_Node000001_Node000018"><a xlink:title=" ">
<path fill="none" stroke="#63b8ff" d="M88.68,-641.57C105.21,-636.86 125.22,-631.15 144.02,-625.79"/>
<polygon fill="#63b8ff" stroke="#63b8ff" points="144.8,-629.21 153.45,-623.1 142.88,-622.47 144.8,-629.21"/>
</a>
</g>
</g>
<!-- Node19 -->
<g id="Node000019" class="node">
<title>Node19</title>
<g id="a_Node000019"><a xlink:href="group__tm1622__interface__driver.html#ga13913bff1437a728a3145688ac0433d4" target="_top" xlink:title="interface rd gpio init">
<polygon fill="white" stroke="#666666" points="259.62,-574 155.12,-574 155.12,-542 259.62,-542 259.62,-574"/>
<text xml:space="preserve" text-anchor="start" x="163.12" y="-560.5" font-family="Helvetica,sans-Serif" font-size="10.00">tm1622_interface_rd</text>
<text xml:space="preserve" text-anchor="middle" x="207.38" y="-548.5" font-family="Helvetica,sans-Serif" font-size="10.00">_gpio_init</text>
</a>
</g>
</g>
<!-- Node1&#45;&gt;Node19 -->
<g id="edge18_Node000001_Node000019" class="edge">
<title>Node1&#45;&gt;Node19</title>
<g id="a_edge18_Node000001_Node000019"><a xlink:title=" ">
<path fill="none" stroke="#63b8ff" d="M62.71,-641.6C78.17,-626.87 108.38,-599.85 138.25,-583 140.56,-581.69 142.96,-580.43 145.41,-579.22"/>
<polygon fill="#63b8ff" stroke="#63b8ff" points="146.69,-582.49 154.31,-575.13 143.77,-576.12 146.69,-582.49"/>
</a>
</g>
</g>
<!-- Node20 -->
<g id="Node000020" class="node">
<title>Node20</title>
<g id="a_Node000020"><a xlink:href="group__tm1622__interface__driver.html#ga41e0282de2287299e945da63e60539a6" target="_top" xlink:title="interface rd gpio write">
<polygon fill="white" stroke="#666666" points="259.62,-524 155.12,-524 155.12,-492 259.62,-492 259.62,-524"/>
<text xml:space="preserve" text-anchor="start" x="163.12" y="-510.5" font-family="Helvetica,sans-Serif" font-size="10.00">tm1622_interface_rd</text>
<text xml:space="preserve" text-anchor="middle" x="207.38" y="-498.5" font-family="Helvetica,sans-Serif" font-size="10.00">_gpio_write</text>
</a>
</g>
</g>
<!-- Node1&#45;&gt;Node20 -->
<g id="edge19_Node000001_Node000020" class="edge">
<title>Node1&#45;&gt;Node20</title>
<g id="a_edge19_Node000001_Node000020"><a xlink:title=" ">
<path fill="none" stroke="#63b8ff" d="M56.85,-641.83C67.89,-619.1 97.58,-563.79 138.25,-533 140.37,-531.4 142.6,-529.89 144.91,-528.47"/>
<polygon fill="#63b8ff" stroke="#63b8ff" points="146.33,-531.68 153.46,-523.85 143,-525.53 146.33,-531.68"/>
</a>
</g>
</g>
<!-- Node21 -->
<g id="Node000021" class="node">
<title>Node21</title>
<g id="a_Node000021"><a xlink:href="group__tm1622__interface__driver.html#ga68f9c796005818628955cebe032cede2" target="_top" xlink:title="interface wr gpio deinit">
<polygon fill="white" stroke="#666666" points="260.75,-474 154,-474 154,-442 260.75,-442 260.75,-474"/>
<text xml:space="preserve" text-anchor="start" x="162" y="-460.5" font-family="Helvetica,sans-Serif" font-size="10.00">tm1622_interface_wr</text>
<text xml:space="preserve" text-anchor="middle" x="207.38" y="-448.5" font-family="Helvetica,sans-Serif" font-size="10.00">_gpio_deinit</text>
</a>
</g>
</g>
<!-- Node1&#45;&gt;Node21 -->
<g id="edge20_Node000001_Node000021" class="edge">
<title>Node1&#45;&gt;Node21</title>
<g id="a_edge20_Node000001_Node000021"><a xlink:title=" ">
<path fill="none" stroke="#63b8ff" d="M54.56,-641.62C61.94,-612.41 86.76,-528.67 138.25,-483 140.13,-481.34 142.12,-479.78 144.21,-478.32"/>
<polygon fill="#63b8ff" stroke="#63b8ff" points="145.75,-481.48 152.54,-473.34 142.16,-475.47 145.75,-481.48"/>
</a>
</g>
</g>
<!-- Node22 -->
<g id="Node000022" class="node">
<title>Node22</title>
<g id="a_Node000022"><a xlink:href="group__tm1622__interface__driver.html#ga565241a95c8b02faad608d0c8294d2a9" target="_top" xlink:title="interface wr gpio init">
<polygon fill="white" stroke="#666666" points="260.75,-424 154,-424 154,-392 260.75,-392 260.75,-424"/>
<text xml:space="preserve" text-anchor="start" x="162" y="-410.5" font-family="Helvetica,sans-Serif" font-size="10.00">tm1622_interface_wr</text>
<text xml:space="preserve" text-anchor="middle" x="207.38" y="-398.5" font-family="Helvetica,sans-Serif" font-size="10.00">_gpio_init</text>
</a>
</g>
</g>
<!-- Node1&#45;&gt;Node22 -->
<g id="edge21_Node000001_Node000022" class="edge">
<title>Node1&#45;&gt;Node22</title>
<g id="a_edge21_Node000001_Node000022"><a xlink:title=" ">
<path fill="none" stroke="#63b8ff" d="M53.21,-641.67C57.38,-607.13 75.43,-494.39 138.25,-433 140.08,-431.21 142.05,-429.55 144.12,-428"/>
<polygon fill="#63b8ff" stroke="#63b8ff" points="145.88,-431.03 152.5,-422.76 142.17,-425.1 145.88,-431.03"/>
</a>
</g>
</g>
<!-- Node23 -->
<g id="Node000023" class="node">
<title>Node23</title>
<g id="a_Node000023"><a xlink:href="group__tm1622__interface__driver.html#ga454c07d7f5865e29369e4a04c15c82d3" target="_top" xlink:title="interface wr gpio write">
<polygon fill="white" stroke="#666666" points="260.75,-374 154,-374 154,-342 260.75,-342 260.75,-374"/>
<text xml:space="preserve" text-anchor="start" x="162" y="-360.5" font-family="Helvetica,sans-Serif" font-size="10.00">tm1622_interface_wr</text>
<text xml:space="preserve" text-anchor="middle" x="207.38" y="-348.5" font-family="Helvetica,sans-Serif" font-size="10.00">_gpio_write</text>
</a>
</g>
</g>
<!-- Node1&#45;&gt;Node23 -->
<g id="edge22_Node000001_Node000023" class="edge">
<title>Node1&#45;&gt;Node23</title>
<g id="a_edge22_Node000001_Node000023"><a xlink:title=" ">
<path fill="none" stroke="#63b8ff" d="M52.34,-641.62C53.74,-602.27 63.92,-460.51 138.25,-383 140.02,-381.15 141.94,-379.44 143.97,-377.86"/>
<polygon fill="#63b8ff" stroke="#63b8ff" points="145.74,-380.88 152.23,-372.5 141.94,-375.01 145.74,-380.88"/>
</a>
</g>
</g>
<!-- Node24 -->
<g id="Node000024" class="node">
<title>Node24</title>
<g id="a_Node000024"><a xlink:href="group__tm1622__basic__driver.html#gaa76280da657cf1913b273fd9747f6c96" target="_top" xlink:title="set clock">
<polygon fill="white" stroke="#666666" points="255.12,-324 159.62,-324 159.62,-304 255.12,-304 255.12,-324"/>
<text xml:space="preserve" text-anchor="middle" x="207.38" y="-310.5" font-family="Helvetica,sans-Serif" font-size="10.00">tm1622_set_clock</text>
</a>
</g>
</g>
<!-- Node1&#45;&gt;Node24 -->
<g id="edge23_Node000001_Node000024" class="edge">
<title>Node1&#45;&gt;Node24</title>
<g id="a_edge23_Node000001_Node000024"><a xlink:title=" ">
<path fill="none" stroke="#63b8ff" d="M53.52,-641.78C60.43,-592.4 92.6,-379.03 138.25,-333 141.42,-329.81 145.07,-327.14 149.02,-324.91"/>
<polygon fill="#63b8ff" stroke="#63b8ff" points="150.26,-328.19 157.9,-320.85 147.35,-321.82 150.26,-328.19"/>
</a>
</g>
</g>
<!-- Node25 -->
<g id="Node000025" class="node">
<title>Node25</title>
<g id="a_Node000025"><a xlink:href="group__tm1622__basic__driver.html#gab57dd1d8f81e3eaa718e2ae7b2e973b9" target="_top" xlink:title="set freq">
<polygon fill="white" stroke="#666666" points="251.75,-286 163,-286 163,-266 251.75,-266 251.75,-286"/>
<text xml:space="preserve" text-anchor="middle" x="207.38" y="-272.5" font-family="Helvetica,sans-Serif" font-size="10.00">tm1622_set_freq</text>
</a>
</g>
</g>
<!-- Node1&#45;&gt;Node25 -->
<g id="edge24_Node000001_Node000025" class="edge">
<title>Node1&#45;&gt;Node25</title>
<g id="a_edge24_Node000001_Node000025"><a xlink:title=" ">
<path fill="none" stroke="#63b8ff" d="M53.22,-641.65C59.02,-588.55 87.88,-347.18 138.25,-295 142.25,-290.85 147.07,-287.59 152.28,-285.02"/>
<polygon fill="#63b8ff" stroke="#63b8ff" points="153.26,-288.4 161.26,-281.46 150.67,-281.9 153.26,-288.4"/>
</a>
</g>
</g>
<!-- Node26 -->
<g id="Node000026" class="node">
<title>Node26</title>
<g id="a_Node000026"><a xlink:href="group__tm1622__basic__driver.html#gae2ee242de65ab7f8e911032deffd7802" target="_top" xlink:title="enable or disable irq">
<polygon fill="white" stroke="#666666" points="248.75,-248 166,-248 166,-228 248.75,-228 248.75,-248"/>
<text xml:space="preserve" text-anchor="middle" x="207.38" y="-234.5" font-family="Helvetica,sans-Serif" font-size="10.00">tm1622_set_irq</text>
</a>
</g>
</g>
<!-- Node1&#45;&gt;Node26 -->
<g id="edge25_Node000001_Node000026" class="edge">
<title>Node1&#45;&gt;Node26</title>
<g id="a_edge25_Node000001_Node000026"><a xlink:title=" ">
<path fill="none" stroke="#63b8ff" d="M52.96,-641.7C57.7,-585.4 83.08,-315.43 138.25,-257 142.89,-252.08 148.69,-248.4 154.94,-245.65"/>
<polygon fill="#63b8ff" stroke="#63b8ff" points="156.04,-248.97 164.31,-242.35 153.72,-242.37 156.04,-248.97"/>
</a>
</g>
</g>
<!-- Node27 -->
<g id="Node000027" class="node">
<title>Node27</title>
<g id="a_Node000027"><a xlink:href="group__tm1622__basic__driver.html#ga2047c1fd7612bb6e60e2df7eef9aa9ee" target="_top" xlink:title="enable or disable lcd bias">
<polygon fill="white" stroke="#666666" points="261.5,-210 153.25,-210 153.25,-190 261.5,-190 261.5,-210"/>
<text xml:space="preserve" text-anchor="middle" x="207.38" y="-196.5" font-family="Helvetica,sans-Serif" font-size="10.00">tm1622_set_lcd_bias</text>
</a>
</g>
</g>
<!-- Node1&#45;&gt;Node27 -->
<g id="edge26_Node000001_Node000027" class="edge">
<title>Node1&#45;&gt;Node27</title>
<g id="a_edge26_Node000001_Node000027"><a xlink:title=" ">
<path fill="none" stroke="#63b8ff" d="M52.76,-641.51C56.56,-581.64 78.32,-283.64 138.25,-219 139.78,-217.35 141.45,-215.83 143.22,-214.44"/>
<polygon fill="#63b8ff" stroke="#63b8ff" points="144.85,-217.55 151.52,-209.32 141.17,-211.59 144.85,-217.55"/>
</a>
</g>
</g>
<!-- Node28 -->
<g id="Node000028" class="node">
<title>Node28</title>
<g id="a_Node000028"><a xlink:href="group__tm1622__basic__driver.html#gae380d1f6b5fe7a8fede666f729863e80" target="_top" xlink:title="set mode">
<polygon fill="white" stroke="#666666" points="255.5,-172 159.25,-172 159.25,-152 255.5,-152 255.5,-172"/>
<text xml:space="preserve" text-anchor="middle" x="207.38" y="-158.5" font-family="Helvetica,sans-Serif" font-size="10.00">tm1622_set_mode</text>
</a>
</g>
</g>
<!-- Node1&#45;&gt;Node28 -->
<g id="edge27_Node000001_Node000028" class="edge">
<title>Node1&#45;&gt;Node28</title>
<g id="a_edge27_Node000001_Node000028"><a xlink:title=" ">
<path fill="none" stroke="#63b8ff" d="M52.56,-641.84C55.4,-579.76 73.38,-252.07 138.25,-181 141.28,-177.68 144.84,-174.92 148.72,-172.62"/>
<polygon fill="#63b8ff" stroke="#63b8ff" points="149.95,-175.91 157.51,-168.49 146.97,-169.58 149.95,-175.91"/>
</a>
</g>
</g>
<!-- Node29 -->
<g id="Node000029" class="node">
<title>Node29</title>
<g id="a_Node000029"><a xlink:href="group__tm1622__basic__driver.html#gae29652429f2fc4e1517b6d123f1d12c9" target="_top" xlink:title="enable or disable oscillator">
<polygon fill="white" stroke="#666666" points="263,-134 151.75,-134 151.75,-114 263,-114 263,-134"/>
<text xml:space="preserve" text-anchor="middle" x="207.38" y="-120.5" font-family="Helvetica,sans-Serif" font-size="10.00">tm1622_set_oscillator</text>
</a>
</g>
</g>
<!-- Node1&#45;&gt;Node29 -->
<g id="edge28_Node000001_Node000029" class="edge">
<title>Node1&#45;&gt;Node29</title>
<g id="a_edge28_Node000001_Node000029"><a xlink:title=" ">
<path fill="none" stroke="#63b8ff" d="M52.41,-641.88C54.41,-577.05 68.52,-220.41 138.25,-143 139.41,-141.72 140.64,-140.52 141.94,-139.4"/>
<polygon fill="#63b8ff" stroke="#63b8ff" points="143.75,-142.4 150.1,-133.92 139.85,-136.58 143.75,-142.4"/>
</a>
</g>
</g>
<!-- Node30 -->
<g id="Node000030" class="node">
<title>Node30</title>
<g id="a_Node000030"><a xlink:href="group__tm1622__basic__driver.html#ga8aaba0b6b90a405c615aef57e73e2a74" target="_top" xlink:title="enable or disable timer">
<polygon fill="white" stroke="#666666" points="254.38,-96 160.38,-96 160.38,-76 254.38,-76 254.38,-96"/>
<text xml:space="preserve" text-anchor="middle" x="207.38" y="-82.5" font-family="Helvetica,sans-Serif" font-size="10.00">tm1622_set_timer</text>
</a>
</g>
</g>
<!-- Node1&#45;&gt;Node30 -->
<g id="edge29_Node000001_Node000030" class="edge">
<title>Node1&#45;&gt;Node30</title>
<g id="a_edge29_Node000001_Node000030"><a xlink:title=" ">
<path fill="none" stroke="#63b8ff" d="M52.28,-641.57C53.52,-573.16 63.77,-188.64 138.25,-105 141.51,-101.34 145.41,-98.36 149.68,-95.93"/>
<polygon fill="#63b8ff" stroke="#63b8ff" points="151.08,-99.14 158.77,-91.85 148.21,-92.75 151.08,-99.14"/>
</a>
</g>
</g>
<!-- Node31 -->
<g id="Node000031" class="node">
<title>Node31</title>
<g id="a_Node000031"><a xlink:href="group__tm1622__basic__driver.html#gac11721db6e00b7b5b95f8f6683690892" target="_top" xlink:title="enable or disable tone">
<polygon fill="white" stroke="#666666" points="252.88,-58 161.88,-58 161.88,-38 252.88,-38 252.88,-58"/>
<text xml:space="preserve" text-anchor="middle" x="207.38" y="-44.5" font-family="Helvetica,sans-Serif" font-size="10.00">tm1622_set_tone</text>
</a>
</g>
</g>
<!-- Node1&#45;&gt;Node31 -->
<g id="edge30_Node000001_Node000031" class="edge">
<title>Node1&#45;&gt;Node31</title>
<g id="a_edge30_Node000001_Node000031"><a xlink:title=" ">
<path fill="none" stroke="#63b8ff" d="M52.16,-641.78C52.64,-571.26 58.83,-157.1 138.25,-67 141.87,-62.9 146.28,-59.65 151.12,-57.08"/>
<polygon fill="#63b8ff" stroke="#63b8ff" points="152.25,-60.4 160.1,-53.29 149.53,-53.95 152.25,-60.4"/>
</a>
</g>
</g>
<!-- Node32 -->
<g id="Node000032" class="node">
<title>Node32</title>
<g id="a_Node000032"><a xlink:href="group__tm1622__basic__driver.html#ga7e0cf48e011917a7a75e5cd764376785" target="_top" xlink:title="enable or disable watchdog">
<polygon fill="white" stroke="#666666" points="264.5,-20 150.25,-20 150.25,0 264.5,0 264.5,-20"/>
<text xml:space="preserve" text-anchor="middle" x="207.38" y="-6.5" font-family="Helvetica,sans-Serif" font-size="10.00">tm1622_set_watchdog</text>
</a>
</g>
</g>
<!-- Node1&#45;&gt;Node32 -->
<g id="edge31_Node000001_Node000032" class="edge">
<title>Node1&#45;&gt;Node32</title>
<g id="a_edge31_Node000001_Node000032"><a xlink:title=" ">
<path fill="none" stroke="#63b8ff" d="M52.06,-641.6C51.84,-567.94 54.02,-125.41 138.25,-29 139.08,-28.05 139.95,-27.15 140.86,-26.29"/>
<polygon fill="#63b8ff" stroke="#63b8ff" points="142.7,-29.28 148.72,-20.56 138.57,-23.62 142.7,-29.28"/>
</a>
</g>
</g>
</g>
</svg>
